HIERARCHY
ROOT mixamorig:Hips
{
	OFFSET -0.000008 104.274872 1.554316
	CHANNELS 6 Xposition Yposition Zposition Xrotation Yrotation Zrotation
	JOINT mixamorig:Spine
	{
		OFFSET -0.000005 10.181595 0.131519
		CHANNELS 6 Xposition Yposition Zposition Xrotation Yrotation Zrotation
		JOINT mixamorig:Spine1
		{
			OFFSET -0.000000 9.893959 -1.470707
			CHANNELS 6 Xposition Yposition Zposition Xrotation Yrotation Zrotation
			JOINT mixamorig:Spine2
			{
				OFFSET -0.000000 9.220757 -1.370641
				CHANNELS 6 Xposition Yposition Zposition Xrotation Yrotation Zrotation
				JOINT mixamorig:Neck
				{
					OFFSET 0.000001 16.740417 -2.049036
					CHANNELS 6 Xposition Yposition Zposition Xrotation Yrotation Zrotation
					JOINT mixamorig:Head
					{
						OFFSET 0.000000 9.617874 1.685006
						CHANNELS 6 Xposition Yposition Zposition Xrotation Yrotation Zrotation
						JOINT mixamorig:HeadTop_End
						{
							OFFSET 0.000002 22.037354 7.501101
							CHANNELS 6 Xposition Yposition Zposition Xrotation Yrotation Zrotation
							End Site
							{
								OFFSET 0.000168 2310.654297 -282.823242
							}
						}
					}
				}
				JOINT mixamorig:RightShoulder
				{
					OFFSET -4.569970 11.014908 -2.160885
					CHANNELS 6 Xposition Yposition Zposition Xrotation Yrotation Zrotation
					JOINT mixamorig:RightArm
					{
						OFFSET -10.592851 -0.524811 -2.232101
						CHANNELS 6 Xposition Yposition Zposition Xrotation Yrotation Zrotation
						JOINT mixamorig:RightForeArm
						{
							OFFSET -27.841511 0.000031 -0.000004
							CHANNELS 6 Xposition Yposition Zposition Xrotation Yrotation Zrotation
							JOINT mixamorig:RightHand
							{
								OFFSET -28.328831 -0.000015 0.000015
								CHANNELS 6 Xposition Yposition Zposition Xrotation Yrotation Zrotation
								JOINT mixamorig:RightHandThumb1
								{
									OFFSET -2.464806 -1.573990 2.681852
									CHANNELS 6 Xposition Yposition Zposition Xrotation Yrotation Zrotation
									JOINT mixamorig:RightHandThumb2
									{
										OFFSET -3.215179 -1.872803 1.924282
										CHANNELS 6 Xposition Yposition Zposition Xrotation Yrotation Zrotation
										JOINT mixamorig:RightHandThumb3
										{
											OFFSET -2.654831 -1.527969 1.512609
											CHANNELS 6 Xposition Yposition Zposition Xrotation Yrotation Zrotation
											JOINT mixamorig:RightHandThumb4
											{
												OFFSET -2.018814 -1.152008 1.108052
												CHANNELS 6 Xposition Yposition Zposition Xrotation Yrotation Zrotation
												End Site
												{
													OFFSET -188.809540 -114.533607 132.431396
												}
											}
										}
									}
								}
								JOINT mixamorig:RightHandIndex1
								{
									OFFSET -9.108284 -0.517868 2.259835
									CHANNELS 6 Xposition Yposition Zposition Xrotation Yrotation Zrotation
									JOINT mixamorig:RightHandIndex2
									{
										OFFSET -3.699989 0.000000 0.001215
										CHANNELS 6 Xposition Yposition Zposition Xrotation Yrotation Zrotation
										JOINT mixamorig:RightHandIndex3
										{
											OFFSET -2.850006 0.000031 -0.000522
											CHANNELS 6 Xposition Yposition Zposition Xrotation Yrotation Zrotation
											JOINT mixamorig:RightHandIndex4
											{
												OFFSET -2.772186 -0.000015 -0.000020
												CHANNELS 6 Xposition Yposition Zposition Xrotation Yrotation Zrotation
												End Site
												{
													OFFSET -277.218445 0.000000 -0.050231
												}
											}
										}
									}
								}
								JOINT mixamorig:RightHandMiddle1
								{
									OFFSET -9.532516 -0.000031 -0.000023
									CHANNELS 6 Xposition Yposition Zposition Xrotation Yrotation Zrotation
									JOINT mixamorig:RightHandMiddle2
									{
										OFFSET -3.700005 -0.000015 0.003713
										CHANNELS 6 Xposition Yposition Zposition Xrotation Yrotation Zrotation
										JOINT mixamorig:RightHandMiddle3
										{
											OFFSET -2.949974 0.000015 -0.002054
											CHANNELS 6 Xposition Yposition Zposition Xrotation Yrotation Zrotation
											JOINT mixamorig:RightHandMiddle4
											{
												OFFSET -2.946640 0.000000 -0.000156
												CHANNELS 6 Xposition Yposition Zposition Xrotation Yrotation Zrotation
												End Site
												{
													OFFSET -294.664337 0.000000 -0.113670
												}
											}
										}
									}
								}
								JOINT mixamorig:RightHandRing1
								{
									OFFSET -9.103600 -0.043076 -1.865134
									CHANNELS 6 Xposition Yposition Zposition Xrotation Yrotation Zrotation
									JOINT mixamorig:RightHandRing2
									{
										OFFSET -3.379288 0.000000 -0.001055
										CHANNELS 6 Xposition Yposition Zposition Xrotation Yrotation Zrotation
										JOINT mixamorig:RightHandRing3
										{
											OFFSET -2.889687 -0.000015 0.000379
											CHANNELS 6 Xposition Yposition Zposition Xrotation Yrotation Zrotation
											JOINT mixamorig:RightHandRing4
											{
												OFFSET -2.638809 -0.000015 0.000941
												CHANNELS 6 Xposition Yposition Zposition Xrotation Yrotation Zrotation
												End Site
												{
													OFFSET -263.880371 0.000000 0.516020
												}
											}
										}
									}
								}
								JOINT mixamorig:RightHandPinky1
								{
									OFFSET -8.076683 -0.486710 -3.806280
									CHANNELS 6 Xposition Yposition Zposition Xrotation Yrotation Zrotation
									JOINT mixamorig:RightHandPinky2
									{
										OFFSET -3.600014 -0.000015 -0.003747
										CHANNELS 6 Xposition Yposition Zposition Xrotation Yrotation Zrotation
										JOINT mixamorig:RightHandPinky3
										{
											OFFSET -2.099983 0.000000 -0.005739
											CHANNELS 6 Xposition Yposition Zposition Xrotation Yrotation Zrotation
											JOINT mixamorig:RightHandPinky4
											{
												OFFSET -2.115768 -0.000031 -0.003680
												CHANNELS 6 Xposition Yposition Zposition Xrotation Yrotation Zrotation
												End Site
												{
													OFFSET -211.577087 0.000000 -0.350686
												}
											}
										}
									}
								}
							}
						}
					}
				}
				JOINT mixamorig:LeftShoulder
				{
					OFFSET 4.570447 11.014725 -2.160855
					CHANNELS 6 Xposition Yposition Zposition Xrotation Yrotation Zrotation
					JOINT mixamorig:LeftArm
					{
						OFFSET 10.592371 -0.524597 -2.232119
						CHANNELS 6 Xposition Yposition Zposition Xrotation Yrotation Zrotation
						JOINT mixamorig:LeftForeArm
						{
							OFFSET 27.841532 -0.000031 0.000026
							CHANNELS 6 Xposition Yposition Zposition Xrotation Yrotation Zrotation
							JOINT mixamorig:LeftHand
							{
								OFFSET 28.328846 -0.000061 0.000022
								CHANNELS 6 Xposition Yposition Zposition Xrotation Yrotation Zrotation
								JOINT mixamorig:LeftHandThumb1
								{
									OFFSET 2.466141 -1.576172 2.681732
									CHANNELS 6 Xposition Yposition Zposition Xrotation Yrotation Zrotation
									JOINT mixamorig:LeftHandThumb2
									{
										OFFSET 3.217812 -1.872070 1.916482
										CHANNELS 6 Xposition Yposition Zposition Xrotation Yrotation Zrotation
										JOINT mixamorig:LeftHandThumb3
										{
											OFFSET 2.656029 -1.528778 1.514513
											CHANNELS 6 Xposition Yposition Zposition Xrotation Yrotation Zrotation
											JOINT mixamorig:LeftHandThumb4
											{
												OFFSET 2.020889 -1.154053 1.115139
												CHANNELS 6 Xposition Yposition Zposition Xrotation Yrotation Zrotation
												End Site
												{
													OFFSET 190.885437 -115.081749 130.048782
												}
											}
										}
									}
								}
								JOINT mixamorig:LeftHandIndex1
								{
									OFFSET 9.109314 -0.518021 2.259871
									CHANNELS 6 Xposition Yposition Zposition Xrotation Yrotation Zrotation
									JOINT mixamorig:LeftHandIndex2
									{
										OFFSET 3.699989 0.000000 -0.000322
										CHANNELS 6 Xposition Yposition Zposition Xrotation Yrotation Zrotation
										JOINT mixamorig:LeftHandIndex3
										{
											OFFSET 2.850006 0.000000 0.000352
											CHANNELS 6 Xposition Yposition Zposition Xrotation Yrotation Zrotation
											JOINT mixamorig:LeftHandIndex4
											{
												OFFSET 2.774864 -0.000031 -0.000027
												CHANNELS 6 Xposition Yposition Zposition Xrotation Yrotation Zrotation
												End Site
												{
													OFFSET 277.486267 0.000000 -0.009857
												}
											}
										}
									}
								}
								JOINT mixamorig:LeftHandMiddle1
								{
									OFFSET 9.533394 0.000061 0.000044
									CHANNELS 6 Xposition Yposition Zposition Xrotation Yrotation Zrotation
									JOINT mixamorig:LeftHandMiddle2
									{
										OFFSET 3.699989 -0.000015 -0.000231
										CHANNELS 6 Xposition Yposition Zposition Xrotation Yrotation Zrotation
										JOINT mixamorig:LeftHandMiddle3
										{
											OFFSET 2.949997 -0.000015 -0.000059
											CHANNELS 6 Xposition Yposition Zposition Xrotation Yrotation Zrotation
											JOINT mixamorig:LeftHandMiddle4
											{
												OFFSET 2.952896 0.000031 0.000063
												CHANNELS 6 Xposition Yposition Zposition Xrotation Yrotation Zrotation
												End Site
												{
													OFFSET 295.289337 0.000000 0.022810
												}
											}
										}
									}
								}
								JOINT mixamorig:LeftHandRing1
								{
									OFFSET 9.104523 -0.042999 -1.865074
									CHANNELS 6 Xposition Yposition Zposition Xrotation Yrotation Zrotation
									JOINT mixamorig:LeftHandRing2
									{
										OFFSET 3.150009 -0.000031 0.000043
										CHANNELS 6 Xposition Yposition Zposition Xrotation Yrotation Zrotation
										JOINT mixamorig:LeftHandRing3
										{
											OFFSET 2.949982 -0.000015 0.000040
											CHANNELS 6 Xposition Yposition Zposition Xrotation Yrotation Zrotation
											JOINT mixamorig:LeftHandRing4
											{
												OFFSET 2.644348 0.000000 0.000057
												CHANNELS 6 Xposition Yposition Zposition Xrotation Yrotation Zrotation
												End Site
												{
													OFFSET 264.434631 0.000000 0.012105
												}
											}
										}
									}
								}
								JOINT mixamorig:LeftHandPinky1
								{
									OFFSET 8.077789 -0.486847 -3.806259
									CHANNELS 6 Xposition Yposition Zposition Xrotation Yrotation Zrotation
									JOINT mixamorig:LeftHandPinky2
									{
										OFFSET 3.599953 0.000031 0.014727
										CHANNELS 6 Xposition Yposition Zposition Xrotation Yrotation Zrotation
										JOINT mixamorig:LeftHandPinky3
										{
											OFFSET 2.100021 0.000015 0.007705
											CHANNELS 6 Xposition Yposition Zposition Xrotation Yrotation Zrotation
											JOINT mixamorig:LeftHandPinky4
											{
												OFFSET 2.125504 0.000031 0.007517
												CHANNELS 6 Xposition Yposition Zposition Xrotation Yrotation Zrotation
												End Site
												{
													OFFSET 212.550781 0.000000 0.625752
												}
											}
										}
									}
								}
							}
						}
					}
				}
			}
		}
	}
	JOINT mixamorig:RightUpLeg
	{
		OFFSET -8.207787 -6.751648 -1.599560
		CHANNELS 6 Xposition Yposition Zposition Xrotation Yrotation Zrotation
		JOINT mixamorig:RightLeg
		{
			OFFSET -0.000002 -44.370117 0.345942
			CHANNELS 6 Xposition Yposition Zposition Xrotation Yrotation Zrotation
			JOINT mixamorig:RightFoot
			{
				OFFSET 0.000003 -44.423679 -3.043532
				CHANNELS 6 Xposition Yposition Zposition Xrotation Yrotation Zrotation
				JOINT mixamorig:RightToeBase
				{
					OFFSET -0.000002 -8.728671 10.710558
					CHANNELS 6 Xposition Yposition Zposition Xrotation Yrotation Zrotation
					JOINT mixamorig:RightToe_End
					{
						OFFSET -0.000001 -0.000679 9.278119
						CHANNELS 6 Xposition Yposition Zposition Xrotation Yrotation Zrotation
						End Site
						{
							OFFSET 0.000000 -0.067690 927.812134
						}
					}
				}
			}
		}
	}
	JOINT mixamorig:LeftUpLeg
	{
		OFFSET 8.207793 -6.751686 -1.599556
		CHANNELS 6 Xposition Yposition Zposition Xrotation Yrotation Zrotation
		JOINT mixamorig:LeftLeg
		{
			OFFSET -0.000004 -44.370014 0.346954
			CHANNELS 6 Xposition Yposition Zposition Xrotation Yrotation Zrotation
			JOINT mixamorig:LeftFoot
			{
				OFFSET -0.000001 -44.423672 -3.044401
				CHANNELS 6 Xposition Yposition Zposition Xrotation Yrotation Zrotation
				JOINT mixamorig:LeftToeBase
				{
					OFFSET -0.000002 -8.728669 10.710558
					CHANNELS 6 Xposition Yposition Zposition Xrotation Yrotation Zrotation
					JOINT mixamorig:LeftToe_End
					{
						OFFSET -0.000003 -0.000679 9.278133
						CHANNELS 6 Xposition Yposition Zposition Xrotation Yrotation Zrotation
						End Site
						{
							OFFSET 0.000000 -0.068021 927.813477
						}
					}
				}
			}
		}
	}
}
MOTION
Frames: 3
Frame Time: 0.033333
0.000006 104.270477 1.554256 0.000010 0.000003 -0.000113 -0.000005 10.181587 0.131522 0.000001 -0.000003 0.000084 -0.000000 9.893967 -1.470711 0.000001 0.000000 -0.000000 -0.000000 9.220802 -1.370642 0.000000 -0.000000 -0.000000 0.000001 16.740433 -2.049030 0.000000 -0.000000 -0.000000 0.000000 9.617859 1.685014 0.000000 0.000000 0.000000 0.000002 22.037384 7.501101 0.000000 -0.000000 0.000000 -4.569968 11.014880 -2.160881 0.000008 0.000001 -0.000038 -10.592878 -0.524748 -2.231924 74.936007 25.758371 -19.879771 -27.841522 0.000011 0.000538 -56.042430 108.528243 72.975817 -28.328835 0.000005 0.000023 -0.000317 -0.000046 0.000006 -2.464451 -1.573759 2.682324 -49.253724 -168.323578 -13.511512 -3.215257 -1.872541 1.924637 151.212383 32.454730 13.101013 -2.654958 -1.527868 1.513078 149.857069 27.493195 -27.396510 -2.018831 -1.152014 1.108072 0.000000 -0.000003 0.000004 -9.108378 -0.517557 2.260133 100.796086 15.609224 -18.869475 -3.700082 0.000316 0.001517 98.177884 14.667843 -16.868469 -2.850080 0.000366 -0.000246 99.225997 12.551196 -14.730855 -2.772186 -0.000015 -0.000017 -0.000002 0.000000 -0.000000 -9.532577 0.000285 0.000260 98.128092 13.262002 -15.427497 -3.700058 0.000345 0.003982 97.102491 11.861441 -13.310907 -2.950041 0.000344 -0.001790 98.563045 11.538475 -13.381947 -2.946625 0.000001 -0.000151 0.000001 -0.000001 0.000000 -9.103707 -0.042745 -1.864859 96.073728 15.120220 -16.742930 -3.379301 0.000328 -0.000807 97.500595 8.128576 -9.283695 -2.889743 0.000355 0.000669 101.920636 5.690017 -7.068865 -2.638809 0.000001 0.000943 -0.000000 -0.000000 0.000000 -8.076747 -0.486368 -3.806046 86.004485 14.418050 -13.318135 -3.600004 0.000279 -0.003545 89.710963 4.870700 -4.510082 -2.100007 0.000328 -0.005490 93.192733 2.438725 -2.357516 -2.115792 -0.000052 -0.003681 0.000002 0.000000 -0.000003 4.570446 11.014691 -2.160851 -0.000018 0.000010 -0.000021 10.592400 -0.524475 -2.232348 73.811314 -12.326685 9.272722 27.841827 0.000069 -0.000193 105.185057 -70.173336 85.137393 28.328833 -0.000028 0.000026 0.000021 -0.000089 -0.000000 2.465910 -1.576091 2.681892 -51.091441 171.446709 19.933340 3.217809 -1.871744 1.916369 154.512294 -30.267034 4.342718 2.656107 -1.528644 1.514436 139.805776 -28.016705 42.262748 2.020891 -1.154086 1.115153 0.000003 0.000007 0.000002 9.109375 -0.517875 2.259744 79.518251 -15.971095 13.303414 3.700021 0.000123 -0.000453 76.047442 -17.073870 13.403368 2.850043 0.000150 0.000211 73.076351 -13.634603 10.123671 2.774857 -0.000031 -0.000028 -0.000000 0.000002 0.000003 9.533463 0.000215 -0.000099 80.363289 -13.449242 11.365725 3.700039 0.000155 -0.000388 81.898169 -13.845021 12.025763 2.950066 0.000134 -0.000185 79.328201 -17.959537 14.931980 2.952876 -0.000031 0.000064 0.000000 -0.000001 0.000002 9.104594 -0.042843 -1.865231 79.902271 -12.225245 10.253611 3.150045 0.000199 -0.000100 84.945792 -10.585882 9.697069 2.950026 0.000152 -0.000077 84.491045 -13.793996 12.539845 2.644333 0.000014 0.000060 0.000001 -0.000002 -0.000000 8.077843 -0.486729 -3.806398 74.324746 -13.557695 10.734010 3.600008 0.000178 0.014557 77.333027 -9.922991 8.341614 2.100031 0.000177 0.007550 80.169666 -11.151011 9.797095 2.125505 -0.000015 0.007508 0.000000 -0.000003 -0.000000 -8.207786 -6.751667 -1.599560 -0.077001 -0.000003 0.000080 -0.000002 -44.370110 0.345938 0.153719 -0.000000 -0.000000 0.000000 -44.423679 -3.043532 -0.076700 0.000000 -0.000002 -0.000006 -8.728667 10.710559 -0.000009 -0.000000 -0.000000 -0.000001 -0.000679 9.278123 0.000000 -0.000000 -0.000000 8.207792 -6.751710 -1.599556 -0.074518 -0.000003 0.000081 -0.000002 -44.370014 0.346960 0.148822 0.000002 0.000000 -0.000001 -44.423664 -3.044403 -0.074314 0.000000 -0.000002 -0.000004 -8.728671 10.710558 0.000007 -0.000000 -0.000000 0.000000 -0.000680 9.278137 -0.000000 0.000000 -0.000001 
0.000006 104.270477 1.554256 0.000010 0.000003 -0.000113 -0.000005 10.181587 0.131522 0.000001 -0.000003 0.000084 -0.000000 9.893967 -1.470711 0.000001 0.000000 -0.000000 -0.000000 9.220802 -1.370642 0.000000 -0.000000 -0.000000 0.000001 16.740433 -2.049030 0.000000 -0.000000 -0.000000 0.000000 9.617859 1.685014 0.000000 0.000000 0.000000 0.000002 22.037384 7.501101 0.000000 -0.000000 0.000000 -4.569968 11.014880 -2.160881 0.000008 0.000001 -0.000038 -10.592871 -0.524787 -2.231866 75.528717 36.074218 -28.316638 -27.841522 -0.000001 0.000547 -52.551865 105.365654 65.860741 -28.328833 0.000020 0.000026 -0.000319 -0.000044 0.000006 -2.464438 -1.573748 2.682298 -51.388807 -165.946262 -19.321265 -3.215234 -1.872498 1.924627 144.820214 32.688544 29.219249 -2.654964 -1.527837 1.513039 147.394663 28.749864 -17.142890 -2.018822 -1.152014 1.108070 -0.000004 -0.000003 0.000000 -9.108386 -0.517548 2.260128 101.861562 14.836834 -18.280837 -3.700053 0.000323 0.001526 98.952352 13.583406 -15.835934 -2.850090 0.000361 -0.000243 99.585169 11.621174 -13.728341 -2.772168 -0.000015 -0.000020 -0.000000 -0.000004 -0.000001 -9.532594 0.000285 0.000247 97.406591 13.894377 -15.952849 -3.700068 0.000317 0.004003 98.963915 12.627243 -14.642049 -2.950060 0.000321 -0.001775 102.005631 12.201429 -15.030478 -2.946619 -0.000000 -0.000148 -0.000001 0.000001 0.000001 -9.103708 -0.042750 -1.864861 95.846576 16.155486 -17.818690 -3.379326 0.000329 -0.000792 97.875279 9.628787 -11.063981 -2.889771 0.000367 0.000666 104.822783 7.286429 -9.516269 -2.638820 -0.000012 0.000939 -0.000000 0.000002 -0.000002 -8.076761 -0.486401 -3.806026 86.255741 18.067645 -16.798259 -3.600037 0.000288 -0.003511 88.819083 8.301676 -7.785699 -2.100012 0.000322 -0.005502 93.317432 4.529187 -4.570334 -2.115775 -0.000055 -0.003679 0.000004 -0.000002 -0.000006 4.570446 11.014691 -2.160851 -0.000018 0.000010 -0.000021 10.592400 -0.524475 -2.232346 73.816778 -12.761753 9.602110 27.841824 0.000069 -0.000208 105.462233 -73.121902 88.526082 28.328840 -0.000029 0.000016 0.000023 -0.000088 -0.000000 2.466166 -1.576163 2.681876 -13.184579 159.700929 -62.427307 3.217847 -1.871745 1.916391 163.586173 -27.265253 19.578290 2.656103 -1.528658 1.514489 140.339624 -27.292630 55.388302 2.020891 -1.154052 1.115141 0.000002 -0.000000 0.000003 9.109374 -0.517881 2.259743 80.351138 -21.024743 17.797999 3.700051 0.000147 -0.000468 76.892548 -13.491881 10.743222 2.850042 0.000176 0.000218 76.281089 -10.758350 8.456444 2.774889 -0.000046 -0.000027 0.000000 0.000003 -0.000001 9.533443 0.000181 -0.000096 80.679287 -19.488254 16.587031 3.700039 0.000170 -0.000377 82.620673 -11.359480 9.988289 2.950038 0.000170 -0.000207 83.068747 -12.141426 10.766079 2.952843 -0.000031 0.000064 0.000001 -0.000001 -0.000000 9.104584 -0.042877 -1.865214 80.711615 -19.215045 16.371960 3.150051 0.000182 -0.000108 85.925911 -10.525565 9.807855 2.950012 0.000192 -0.000094 87.659194 -9.610922 9.229428 2.644339 0.000029 0.000057 -0.000001 -0.000001 0.000001 8.077833 -0.486738 -3.806375 75.705311 -20.330342 16.345761 3.599994 0.000165 0.014564 79.072151 -15.064737 12.888801 2.100037 0.000184 0.007541 83.599050 -11.504713 10.722689 2.125504 -0.000015 0.007515 -0.000000 0.000000 0.000000 -8.207786 -6.751667 -1.599560 -0.077001 -0.000003 0.000080 -0.000002 -44.370110 0.345938 0.153719 -0.000000 -0.000000 0.000000 -44.423679 -3.043532 -0.076700 0.000000 -0.000002 -0.000006 -8.728667 10.710559 -0.000009 -0.000000 -0.000000 -0.000001 -0.000679 9.278123 0.000000 -0.000000 -0.000000 8.207792 -6.751710 -1.599556 -0.074518 -0.000003 0.000081 -0.000002 -44.370014 0.346960 0.148822 0.000002 0.000000 -0.000001 -44.423664 -3.044403 -0.074314 0.000000 -0.000002 -0.000004 -8.728671 10.710558 0.000007 -0.000000 -0.000000 0.000000 -0.000680 9.278137 -0.000000 0.000000 -0.000001 
0.000006 104.270477 1.554256 0.000010 0.000003 -0.000113 -0.000005 10.181587 0.131522 0.000001 -0.000003 0.000084 -0.000000 9.893967 -1.470711 0.000001 0.000000 -0.000000 -0.000000 9.220802 -1.370642 0.000000 -0.000000 -0.000000 0.000001 16.740433 -2.049030 0.000000 -0.000000 -0.000000 0.000000 9.617859 1.685014 0.000000 0.000000 0.000000 0.000002 22.037384 7.501101 0.000000 -0.000000 0.000000 -4.569968 11.014880 -2.160881 0.000008 0.000001 -0.000038 -10.592859 -0.524800 -2.231841 75.678926 39.896822 -31.489942 -27.841541 0.000011 0.000553 -51.021209 103.589668 62.457142 -28.328814 0.000021 0.000033 -0.000321 -0.000042 0.000007 -2.464408 -1.573764 2.682312 -48.538654 -161.404241 -11.703375 -3.215224 -1.872484 1.924617 143.751508 32.680614 33.053396 -2.654955 -1.527853 1.513028 147.886054 29.271954 -11.522369 -2.018842 -1.152015 1.108057 -0.000004 0.000001 0.000002 -9.108381 -0.517537 2.260147 103.719722 15.403330 -19.602223 -3.700055 0.000316 0.001539 100.073165 13.553628 -16.113682 -2.850091 0.000366 -0.000241 100.051835 11.487259 -13.682143 -2.772147 -0.000015 -0.000019 0.000000 -0.000001 -0.000000 -9.532573 0.000299 0.000251 96.818075 14.475826 -16.443945 -3.700071 0.000332 0.003992 98.368774 12.976409 -14.892845 -2.950052 0.000344 -0.001783 100.506602 12.308120 -14.766794 -2.946619 0.000001 -0.000154 0.000001 0.000002 0.000001 -9.103685 -0.042738 -1.864847 95.013839 17.095362 -18.585937 -3.379342 0.000297 -0.000787 97.574696 11.323342 -12.936235 -2.889750 0.000348 0.000667 103.548898 8.298547 -10.583552 -2.638811 0.000016 0.000938 0.000001 0.000001 0.000001 -8.076755 -0.486396 -3.806032 85.437525 18.867609 -17.303210 -3.600057 0.000283 -0.003516 88.691823 9.997061 -9.418489 -2.100028 0.000315 -0.005486 93.445184 6.005432 -6.143007 -2.115777 -0.000052 -0.003680 0.000007 -0.000000 -0.000003 4.570446 11.014691 -2.160851 -0.000018 0.000010 -0.000021 10.592427 -0.524465 -2.232378 73.708164 -22.094550 16.651632 27.841825 0.000063 -0.000193 105.995964 -74.659917 90.681328 28.328848 -0.000029 0.000018 0.000022 -0.000089 -0.000000 2.466184 -1.576115 2.681861 -6.798248 161.196713 -74.074972 3.217844 -1.871787 1.916391 163.816951 -26.361702 23.219167 2.656111 -1.528673 1.514476 138.909683 -27.789706 55.525449 2.020895 -1.154087 1.115142 -0.000001 0.000000 0.000001 9.109372 -0.517862 2.259747 80.917463 -20.585873 17.596698 3.700039 0.000140 -0.000490 79.414862 -12.626456 10.512696 2.850049 0.000186 0.000198 78.301637 -9.904558 8.069550 2.774887 -0.000031 -0.000029 -0.000000 -0.000001 0.000000 9.533457 0.000203 -0.000076 81.957482 -19.542197 17.007371 3.700042 0.000172 -0.000381 83.953564 -10.639110 9.574568 2.950043 0.000173 -0.000215 83.602055 -11.805384 10.565708 2.952865 -0.000030 0.000061 0.000002 0.000001 0.000000 9.104578 -0.042852 -1.865228 81.655704 -18.901579 16.370683 3.150043 0.000196 -0.000108 87.203730 -10.502783 10.006626 2.950014 0.000190 -0.000067 88.457841 -9.879898 9.620413 2.644313 0.000045 0.000056 0.000001 0.000001 -0.000001 8.077836 -0.486719 -3.806385 75.076743 -20.086272 15.973255 3.600019 0.000191 0.014549 80.092779 -15.435855 13.437332 2.100055 0.000196 0.007546 84.397697 -12.297198 11.597022 2.125498 -0.000015 0.007518 -0.000001 0.000000 -0.000001 -8.207786 -6.751667 -1.599560 -0.077001 -0.000003 0.000080 -0.000002 -44.370110 0.345938 0.153719 -0.000000 -0.000000 0.000000 -44.423679 -3.043532 -0.076700 0.000000 -0.000002 -0.000006 -8.728667 10.710559 -0.000009 -0.000000 -0.000000 -0.000001 -0.000679 9.278123 0.000000 -0.000000 -0.000000 8.207792 -6.751710 -1.599556 -0.074518 -0.000003 0.000081 -0.000002 -44.370014 0.346960 0.148822 0.000002 0.000000 -0.000001 -44.423664 -3.044403 -0.074314 0.000000 -0.000002 -0.000004 -8.728671 10.710558 0.000007 -0.000000 -0.000000 0.000000 -0.000680 9.278137 -0.000000 0.000000 -0.000001 
